<svg width="568" height="61" viewBox="0 0 568 61" fill="none" xmlns="http://www.w3.org/2000/svg">
<rect width="568" height="61" fill="white"/>
<path d="M170.284 34.5469H163.883L162.623 39H158.287L165.274 17.6719H169.01L175.865 39H171.529L170.284 34.5469ZM164.894 31.0459H169.317L167.135 23.1943L164.894 31.0459ZM188.185 34.6494C188.185 34.4053 188.126 34.1904 188.009 34.0049C187.901 33.8193 187.706 33.6436 187.423 33.4775C187.13 33.3213 186.744 33.1748 186.266 33.0381C185.787 32.9014 185.182 32.7646 184.449 32.6279C183.521 32.4424 182.672 32.2129 181.9 31.9395C181.139 31.6562 180.484 31.3145 179.938 30.9141C179.391 30.5234 178.961 30.0693 178.648 29.5518C178.346 29.0342 178.194 28.4385 178.194 27.7646C178.194 27.1104 178.351 26.4854 178.663 25.8896C178.976 25.2939 179.425 24.7715 180.011 24.3223C180.597 23.873 181.31 23.5166 182.149 23.2529C182.989 22.9893 183.937 22.8574 184.991 22.8574C186.095 22.8574 187.086 22.9893 187.965 23.2529C188.844 23.5068 189.591 23.8584 190.206 24.3076C190.812 24.7666 191.275 25.3086 191.598 25.9336C191.92 26.5586 192.081 27.2373 192.081 27.9697H188.009C188.009 27.7061 187.965 27.4619 187.877 27.2373C187.789 27.0029 187.657 26.793 187.481 26.6074C187.237 26.3633 186.905 26.168 186.485 26.0215C186.075 25.875 185.577 25.8018 184.991 25.8018C184.493 25.8018 184.059 25.8506 183.688 25.9482C183.316 26.0459 183.014 26.1826 182.779 26.3584C182.564 26.5146 182.398 26.7002 182.281 26.915C182.174 27.1201 182.12 27.3398 182.12 27.5742C182.12 27.8086 182.169 28.0283 182.267 28.2334C182.364 28.4287 182.54 28.6045 182.794 28.7607C183.038 28.9268 183.375 29.0781 183.805 29.2148C184.234 29.3418 184.781 29.4541 185.445 29.5518C186.402 29.708 187.291 29.9082 188.111 30.1523C188.932 30.3965 189.64 30.709 190.235 31.0898C190.831 31.4805 191.295 31.9541 191.627 32.5107C191.969 33.0576 192.14 33.7119 192.14 34.4736C192.14 35.1768 191.969 35.8262 191.627 36.4219C191.295 37.0078 190.821 37.5156 190.206 37.9453C189.581 38.375 188.829 38.7119 187.95 38.9561C187.071 39.1904 186.09 39.3076 185.006 39.3076C183.814 39.3076 182.76 39.1514 181.842 38.8389C180.934 38.5264 180.172 38.1162 179.557 37.6084C178.941 37.1104 178.473 36.5439 178.15 35.9092C177.838 35.2646 177.682 34.6201 177.682 33.9756H181.563C181.593 34.4053 181.71 34.7764 181.915 35.0889C182.12 35.3916 182.384 35.6357 182.706 35.8213C183.028 36.0166 183.395 36.1582 183.805 36.2461C184.225 36.334 184.654 36.3779 185.094 36.3779C185.621 36.3779 186.08 36.334 186.471 36.2461C186.871 36.1484 187.198 36.0215 187.452 35.8652C187.696 35.709 187.877 35.5283 187.994 35.3232C188.121 35.1182 188.185 34.8936 188.185 34.6494ZM203.448 19.2686V23.1504H209.366V26.1533H203.448V32.9648C203.448 33.541 203.512 34.0244 203.639 34.415C203.775 34.7959 203.966 35.0986 204.21 35.3232C204.454 35.5576 204.747 35.7236 205.089 35.8213C205.44 35.9189 205.831 35.9678 206.261 35.9678C206.573 35.9678 206.891 35.9531 207.213 35.9238C207.545 35.8945 207.862 35.8555 208.165 35.8066C208.458 35.7676 208.731 35.7236 208.985 35.6748C209.249 35.626 209.474 35.5771 209.659 35.5283L210.055 38.3262C209.771 38.4922 209.439 38.6387 209.059 38.7656C208.678 38.8828 208.272 38.9805 207.843 39.0586C207.413 39.1367 206.964 39.1953 206.495 39.2344C206.036 39.2832 205.582 39.3076 205.133 39.3076C204.264 39.3076 203.473 39.1953 202.76 38.9707C202.057 38.7363 201.456 38.375 200.958 37.8867C200.45 37.4082 200.06 36.7979 199.786 36.0557C199.513 35.3037 199.376 34.4053 199.376 33.3604V26.1533H195.758V23.1504H199.376V19.2686H203.448ZM225.377 22.8574C225.992 22.8574 226.559 22.9014 227.076 22.9893C227.604 23.0674 228.028 23.1553 228.351 23.2529L227.75 27.3105C227.213 27.1836 226.661 27.0908 226.095 27.0322C225.538 26.9639 225.006 26.9297 224.498 26.9297C223.971 26.9297 223.492 26.9785 223.062 27.0762C222.643 27.1641 222.267 27.3008 221.935 27.4863C221.534 27.7012 221.192 27.9746 220.909 28.3066C220.626 28.6387 220.392 29.0293 220.206 29.4785V39H216.134V23.1504H219.928L220.089 25.3916L220.118 25.7432C220.763 24.8447 221.534 24.1416 222.433 23.6338C223.331 23.1162 224.312 22.8574 225.377 22.8574ZM241.915 39C241.817 38.8047 241.734 38.5801 241.666 38.3262C241.598 38.0723 241.539 37.8037 241.49 37.5205C241.266 37.7646 241.007 37.9941 240.714 38.209C240.421 38.4238 240.099 38.6094 239.747 38.7656C239.386 38.9316 238.99 39.0586 238.561 39.1465C238.131 39.2441 237.667 39.293 237.169 39.293C236.358 39.293 235.611 39.1758 234.928 38.9414C234.254 38.707 233.673 38.3799 233.185 37.96C232.696 37.54 232.315 37.042 232.042 36.4658C231.769 35.8799 231.632 35.2451 231.632 34.5615C231.632 33.6826 231.803 32.9062 232.145 32.2324C232.486 31.5488 232.999 30.9873 233.683 30.5479C234.298 30.1475 235.055 29.8447 235.953 29.6396C236.861 29.4248 237.901 29.3174 239.073 29.3174H241.344V28.3799C241.344 28.0088 241.285 27.6768 241.168 27.3838C241.051 27.0811 240.875 26.8223 240.641 26.6074C240.396 26.3828 240.089 26.2119 239.718 26.0947C239.356 25.9678 238.932 25.9043 238.443 25.9043C238.014 25.9043 237.643 25.958 237.33 26.0654C237.018 26.1631 236.764 26.3047 236.568 26.4902C236.393 26.6562 236.261 26.8564 236.173 27.0908C236.095 27.3252 236.056 27.584 236.056 27.8672H231.983C231.983 27.1934 232.13 26.5537 232.423 25.9482C232.726 25.3428 233.165 24.8105 233.741 24.3516C234.308 23.8926 235.001 23.5312 235.821 23.2676C236.651 22.9941 237.599 22.8574 238.663 22.8574C239.62 22.8574 240.509 22.9746 241.329 23.209C242.159 23.4434 242.877 23.79 243.482 24.249C244.088 24.708 244.562 25.2891 244.903 25.9922C245.245 26.6855 245.416 27.4912 245.416 28.4092V35.2061C245.416 36.0557 245.47 36.7588 245.577 37.3154C245.685 37.8721 245.841 38.3506 246.046 38.751V39H241.915ZM238.033 36.1436C238.443 36.1436 238.824 36.0947 239.176 35.9971C239.527 35.8994 239.845 35.7725 240.128 35.6162C240.411 35.46 240.655 35.2842 240.86 35.0889C241.065 34.8838 241.227 34.6787 241.344 34.4736V31.749H239.264C238.629 31.749 238.087 31.8125 237.638 31.9395C237.188 32.0566 236.822 32.2227 236.539 32.4375C236.256 32.6621 236.046 32.9307 235.909 33.2432C235.772 33.5459 235.704 33.8779 235.704 34.2393C235.704 34.5225 235.753 34.7861 235.851 35.0303C235.958 35.2646 236.109 35.4648 236.305 35.6309C236.5 35.7871 236.739 35.9141 237.022 36.0117C237.315 36.0996 237.652 36.1436 238.033 36.1436ZM250.88 16.5H259.742V35.6895H264.283V39H250.88V35.6895H255.626V19.8252H250.88V16.5ZM299.044 29.6543H290.284V35.6748H300.523V39H286.153V17.6719H300.479V21.0264H290.284V26.4023H299.044V29.6543ZM311.334 28.1016L314.82 23.1504H319.2L313.883 30.9287L319.391 39H314.996L311.349 33.8145L307.73 39H303.321L308.829 30.9287L303.526 23.1504H307.906L311.334 28.1016ZM322.159 45.0938V23.1504H325.924L326.07 24.7031C326.285 24.4395 326.52 24.2051 326.773 24C327.027 23.7852 327.301 23.5996 327.594 23.4434C327.945 23.2578 328.331 23.1162 328.751 23.0186C329.181 22.9111 329.64 22.8574 330.128 22.8574C331.134 22.8574 332.022 23.0527 332.794 23.4434C333.565 23.8242 334.215 24.3662 334.742 25.0693C335.27 25.7822 335.665 26.6367 335.929 27.6328C336.202 28.6191 336.339 29.7129 336.339 30.9141V31.2217C336.339 32.374 336.202 33.4434 335.929 34.4297C335.665 35.416 335.274 36.2656 334.757 36.9785C334.229 37.7012 333.58 38.2676 332.809 38.6777C332.037 39.0879 331.153 39.293 330.157 39.293C329.63 39.293 329.142 39.2344 328.692 39.1172C328.253 39.0098 327.843 38.8486 327.462 38.6338C327.237 38.4971 327.022 38.3457 326.817 38.1797C326.612 38.0137 326.417 37.8281 326.231 37.623V45.0938H322.159ZM332.267 30.9141C332.267 30.25 332.203 29.6299 332.076 29.0537C331.959 28.4678 331.773 27.96 331.52 27.5303C331.256 27.1104 330.919 26.7783 330.509 26.5342C330.108 26.29 329.62 26.168 329.044 26.168C328.712 26.168 328.409 26.2021 328.136 26.2705C327.862 26.3291 327.613 26.417 327.389 26.5342C327.135 26.6709 326.91 26.8418 326.715 27.0469C326.529 27.252 326.368 27.4912 326.231 27.7646V34.3857C326.358 34.6396 326.51 34.8691 326.686 35.0742C326.871 35.2793 327.081 35.4551 327.315 35.6016C327.54 35.7383 327.799 35.8457 328.092 35.9238C328.385 35.9922 328.712 36.0264 329.073 36.0264C329.649 36.0264 330.138 35.8994 330.538 35.6455C330.948 35.3916 331.28 35.0449 331.534 34.6055C331.788 34.166 331.974 33.6582 332.091 33.082C332.208 32.4961 332.267 31.876 332.267 31.2217V30.9141ZM351.5 22.8574C352.115 22.8574 352.682 22.9014 353.199 22.9893C353.727 23.0674 354.151 23.1553 354.474 23.2529L353.873 27.3105C353.336 27.1836 352.784 27.0908 352.218 27.0322C351.661 26.9639 351.129 26.9297 350.621 26.9297C350.094 26.9297 349.615 26.9785 349.186 27.0762C348.766 27.1641 348.39 27.3008 348.058 27.4863C347.657 27.7012 347.315 27.9746 347.032 28.3066C346.749 28.6387 346.515 29.0293 346.329 29.4785V39H342.257V23.1504H346.051L346.212 25.3916L346.241 25.7432C346.886 24.8447 347.657 24.1416 348.556 23.6338C349.454 23.1162 350.436 22.8574 351.5 22.8574ZM365.826 39.293C364.605 39.293 363.497 39.0928 362.501 38.6924C361.505 38.292 360.65 37.7451 359.938 37.0518C359.225 36.3682 358.673 35.5625 358.282 34.6348C357.901 33.6973 357.711 32.6963 357.711 31.6318V31.0459C357.711 29.835 357.901 28.7314 358.282 27.7354C358.663 26.7295 359.195 25.8652 359.879 25.1426C360.562 24.4199 361.373 23.8584 362.311 23.458C363.248 23.0576 364.269 22.8574 365.372 22.8574C366.515 22.8574 367.53 23.0479 368.419 23.4287C369.317 23.7998 370.079 24.3271 370.704 25.0107C371.319 25.6943 371.788 26.5195 372.11 27.4863C372.433 28.4434 372.594 29.5029 372.594 30.665V32.3936H361.842V32.4375C361.979 33.0723 362.154 33.585 362.369 33.9756C362.584 34.3564 362.872 34.7031 363.233 35.0156C363.604 35.3379 364.029 35.5869 364.508 35.7627C364.986 35.9385 365.509 36.0264 366.075 36.0264C366.876 36.0264 367.652 35.875 368.404 35.5723C369.156 35.2695 369.767 34.8154 370.235 34.21L372.271 36.4072C371.754 37.1396 370.934 37.8037 369.811 38.3994C368.688 38.9951 367.359 39.293 365.826 39.293ZM365.343 26.1533C364.884 26.1533 364.464 26.2363 364.083 26.4023C363.702 26.5586 363.37 26.7881 363.087 27.0908C362.794 27.3936 362.55 27.7549 362.354 28.1748C362.159 28.5947 362.013 29.0635 361.915 29.5811H368.595V29.2588C368.595 28.8291 368.517 28.4238 368.36 28.043C368.204 27.6621 367.989 27.3301 367.716 27.0469C367.442 26.7734 367.105 26.5586 366.705 26.4023C366.314 26.2363 365.86 26.1533 365.343 26.1533ZM386.378 34.6494C386.378 34.4053 386.319 34.1904 386.202 34.0049C386.095 33.8193 385.899 33.6436 385.616 33.4775C385.323 33.3213 384.938 33.1748 384.459 33.0381C383.98 32.9014 383.375 32.7646 382.643 32.6279C381.715 32.4424 380.865 32.2129 380.094 31.9395C379.332 31.6562 378.678 31.3145 378.131 30.9141C377.584 30.5234 377.154 30.0693 376.842 29.5518C376.539 29.0342 376.388 28.4385 376.388 27.7646C376.388 27.1104 376.544 26.4854 376.856 25.8896C377.169 25.2939 377.618 24.7715 378.204 24.3223C378.79 23.873 379.503 23.5166 380.343 23.2529C381.183 22.9893 382.13 22.8574 383.185 22.8574C384.288 22.8574 385.279 22.9893 386.158 23.2529C387.037 23.5068 387.784 23.8584 388.399 24.3076C389.005 24.7666 389.469 25.3086 389.791 25.9336C390.113 26.5586 390.274 27.2373 390.274 27.9697H386.202C386.202 27.7061 386.158 27.4619 386.07 27.2373C385.982 27.0029 385.851 26.793 385.675 26.6074C385.431 26.3633 385.099 26.168 384.679 26.0215C384.269 25.875 383.771 25.8018 383.185 25.8018C382.687 25.8018 382.252 25.8506 381.881 25.9482C381.51 26.0459 381.207 26.1826 380.973 26.3584C380.758 26.5146 380.592 26.7002 380.475 26.915C380.367 27.1201 380.313 27.3398 380.313 27.5742C380.313 27.8086 380.362 28.0283 380.46 28.2334C380.558 28.4287 380.733 28.6045 380.987 28.7607C381.231 28.9268 381.568 29.0781 381.998 29.2148C382.428 29.3418 382.975 29.4541 383.639 29.5518C384.596 29.708 385.484 29.9082 386.305 30.1523C387.125 30.3965 387.833 30.709 388.429 31.0898C389.024 31.4805 389.488 31.9541 389.82 32.5107C390.162 33.0576 390.333 33.7119 390.333 34.4736C390.333 35.1768 390.162 35.8262 389.82 36.4219C389.488 37.0078 389.015 37.5156 388.399 37.9453C387.774 38.375 387.022 38.7119 386.144 38.9561C385.265 39.1904 384.283 39.3076 383.199 39.3076C382.008 39.3076 380.953 39.1514 380.035 38.8389C379.127 38.5264 378.365 38.1162 377.75 37.6084C377.135 37.1104 376.666 36.5439 376.344 35.9092C376.031 35.2646 375.875 34.6201 375.875 33.9756H379.757C379.786 34.4053 379.903 34.7764 380.108 35.0889C380.313 35.3916 380.577 35.6357 380.899 35.8213C381.222 36.0166 381.588 36.1582 381.998 36.2461C382.418 36.334 382.848 36.3779 383.287 36.3779C383.814 36.3779 384.273 36.334 384.664 36.2461C385.064 36.1484 385.392 36.0215 385.646 35.8652C385.89 35.709 386.07 35.5283 386.188 35.3232C386.314 35.1182 386.378 34.8936 386.378 34.6494ZM404.396 34.6494C404.396 34.4053 404.337 34.1904 404.22 34.0049C404.112 33.8193 403.917 33.6436 403.634 33.4775C403.341 33.3213 402.955 33.1748 402.477 33.0381C401.998 32.9014 401.393 32.7646 400.66 32.6279C399.732 32.4424 398.883 32.2129 398.111 31.9395C397.35 31.6562 396.695 31.3145 396.148 30.9141C395.602 30.5234 395.172 30.0693 394.859 29.5518C394.557 29.0342 394.405 28.4385 394.405 27.7646C394.405 27.1104 394.562 26.4854 394.874 25.8896C395.187 25.2939 395.636 24.7715 396.222 24.3223C396.808 23.873 397.521 23.5166 398.36 23.2529C399.2 22.9893 400.147 22.8574 401.202 22.8574C402.306 22.8574 403.297 22.9893 404.176 23.2529C405.055 23.5068 405.802 23.8584 406.417 24.3076C407.022 24.7666 407.486 25.3086 407.809 25.9336C408.131 26.5586 408.292 27.2373 408.292 27.9697H404.22C404.22 27.7061 404.176 27.4619 404.088 27.2373C404 27.0029 403.868 26.793 403.692 26.6074C403.448 26.3633 403.116 26.168 402.696 26.0215C402.286 25.875 401.788 25.8018 401.202 25.8018C400.704 25.8018 400.27 25.8506 399.898 25.9482C399.527 26.0459 399.225 26.1826 398.99 26.3584C398.775 26.5146 398.609 26.7002 398.492 26.915C398.385 27.1201 398.331 27.3398 398.331 27.5742C398.331 27.8086 398.38 28.0283 398.478 28.2334C398.575 28.4287 398.751 28.6045 399.005 28.7607C399.249 28.9268 399.586 29.0781 400.016 29.2148C400.445 29.3418 400.992 29.4541 401.656 29.5518C402.613 29.708 403.502 29.9082 404.322 30.1523C405.143 30.3965 405.851 30.709 406.446 31.0898C407.042 31.4805 407.506 31.9541 407.838 32.5107C408.18 33.0576 408.351 33.7119 408.351 34.4736C408.351 35.1768 408.18 35.8262 407.838 36.4219C407.506 37.0078 407.032 37.5156 406.417 37.9453C405.792 38.375 405.04 38.7119 404.161 38.9561C403.282 39.1904 402.301 39.3076 401.217 39.3076C400.025 39.3076 398.971 39.1514 398.053 38.8389C397.145 38.5264 396.383 38.1162 395.768 37.6084C395.152 37.1104 394.684 36.5439 394.361 35.9092C394.049 35.2646 393.893 34.6201 393.893 33.9756H397.774C397.804 34.4053 397.921 34.7764 398.126 35.0889C398.331 35.3916 398.595 35.6357 398.917 35.8213C399.239 36.0166 399.605 36.1582 400.016 36.2461C400.436 36.334 400.865 36.3779 401.305 36.3779C401.832 36.3779 402.291 36.334 402.682 36.2461C403.082 36.1484 403.409 36.0215 403.663 35.8652C403.907 35.709 404.088 35.5283 404.205 35.3232C404.332 35.1182 404.396 34.8936 404.396 34.6494Z" fill="black"/>
</svg>
