<svg width="33" height="27" viewBox="0 0 33 27" fill="none" xmlns="http://www.w3.org/2000/svg">
<g clip-path="url(#clip0_207_548)">
<path d="M33.1925 25.4826C32.9102 25.847 32.4792 26.095 31.9944 26.1723C31.5096 26.2495 31.0107 26.1496 30.6074 25.8945L20.481 19.5285C20.0778 19.2734 19.8032 18.884 19.7177 18.446C19.6322 18.008 19.7428 17.5572 20.0251 17.1929C20.3075 16.8285 20.7385 16.5805 21.2233 16.5032C21.7081 16.426 22.207 16.5259 22.6103 16.781L32.7367 23.147C33.1399 23.4022 33.4145 23.7915 33.5 24.2296C33.5855 24.6676 33.4749 25.1183 33.1925 25.4826Z" fill="white"/>
<path d="M22.2749 18.694C20.8859 20.6187 18.9398 22.1006 16.6827 22.9522C14.4256 23.8038 11.9589 23.987 9.59454 23.4784C7.23018 22.9699 5.07434 21.7925 3.39964 20.0953C1.72494 18.398 0.60662 16.257 0.186059 13.9431C-0.234502 11.6291 0.061584 9.24615 1.03691 7.09549C2.01225 4.94483 3.623 3.12307 5.66547 1.86059C7.70795 0.598104 10.0904 -0.0484052 12.5116 0.00282519C14.9328 0.0540556 17.284 0.800722 19.2678 2.1484C21.9249 3.95787 23.7338 6.71607 24.2976 9.81789C24.8613 12.9197 24.1339 16.1119 22.2749 18.694ZM4.72191 6.76952C3.68014 8.21306 3.10297 9.92391 3.06337 11.6857C3.02377 13.4475 3.52353 15.1812 4.49945 16.6674C5.47538 18.1536 6.88363 19.3257 8.54613 20.0354C10.2086 20.7451 12.0507 20.9606 13.8394 20.6546C15.6281 20.3485 17.2832 19.5348 18.5952 18.3161C19.9072 17.0975 20.8173 15.5288 21.2104 13.8084C21.6035 12.0879 21.462 10.293 20.8036 8.65058C20.1453 7.00817 18.9998 5.59206 17.512 4.5813C15.5159 3.22857 13.0484 2.69925 10.6506 3.10948C8.25282 3.5197 6.12067 4.83598 4.72191 6.76952Z" fill="white"/>
</g>
<defs>
<clipPath id="clip0_207_548">
<rect width="33" height="27" fill="white"/>
</clipPath>
</defs>
</svg>
